# xmcd
#
# Track frame offsets:
# 150
# 14527
# 25512
# 40206
# 53580
# 62880
# 81193
# 90390
# 98883
# 107223
# 119028
# 131574
# 139344
# 154169
# 166213
# 178618
# 191904
# 201468
# 227547
# 244226
# 261343
# 277127
# 288867
# 301839
# 321340
# 334871
#
# Disc length: 4654 seconds
#
# Revision: 1
# Processed by: cddbd v1.5.2PL0 Copyright (c) Steve Scherf et al.
# Submitted via: CedeCatalogueitor 2.6.0.6 http://personales.ya.com/cdcatalogueitor
#
DISCID=80122c1a
DTITLE=Johnny Cash - Unearthed [CD1)
DYEAR=2003
DGENRE=
TTITLE0=Long Black Veil
TTITLE1=Flesh And Blood
TTITLE2=Just The Other Side Of Nowhere
TTITLE3=If I Give My Soul
TTITLE4=Understand Your Man
TTITLE5=Banks Of The Ohio
TTITLE6=Two Timin' Woman
TTITLE7=The Caretaker
TTITLE8=Old Chunk Of Coal
TTITLE9=I'm Going To Memphis
TTITLE10=Breaking Bread
TTITLE11=Waiting For A Train
TTITLE12=Casey's Last Ride
TTITLE13=No Earthly Good
TTITLE14=The Fourth Man In The Fire
TTITLE15=Dark As A Dungeon
TTITLE16=Book Review
TTITLE17=Down There By The Train
TTITLE18=Pocahontas
TTITLE19=I'm A Drifter
TTITLE20=Trouble In Mind
TTITLE21=Down The Line
TTITLE22=I'm Movin' On
TTITLE23=As Long As The Grass Shall Grow
TTITLE24=Heart Of Gold
TTITLE25=The Running King
EXTD=
EXTT0=
EXTT1=
EXTT2=
EXTT3=
EXTT4=
EXTT5=
EXTT6=
EXTT7=
EXTT8=
EXTT9=
EXTT10=
EXTT11=
EXTT12=
EXTT13=
EXTT14=
EXTT15=
EXTT16=
EXTT17=
EXTT18=
EXTT19=
EXTT20=
EXTT21=
EXTT22=
EXTT23=
EXTT24=
EXTT25=
PLAYORDER=
